<?xml version="1.0" encoding="UTF-8"?>
<svg id="Layer_1" xmlns="http://www.w3.org/2000/svg" version="1.1" viewBox="0 0 784.6 238">
  <!-- Generator: Adobe Illustrator 29.8.2, SVG Export Plug-In . SVG Version: 2.1.1 Build 3)  -->
  <defs>
    <style>
      .st0 {
        fill: #0b2265;
      }

      .st1 {
        fill: #0098db;
      }

      .st2 {
        fill: #8cd1ef;
      }
    </style>
  </defs>
  <path class="st1" d="M536.9,216c-4,0-8-.3-12-.8l1-7.6c40.2,5.4,79.6-19.6,91.6-58.3,3.5-11.4,4.6-23.7,3.1-35.6l7.6-1c1.7,13,.5,26.4-3.4,38.9-11.9,38.3-48.5,64.4-87.9,64.4h0Z"/>
  <path class="st0" d="M537.2,48.4c-11.1,0-21.6,2.4-31.1,6.7l10.1-.6-1.9,5.2,3.7,2.1,9.8,4.5,4.2-4.2,10.5,2.8,11.2.2-1.2,7.5,6.2,15.2,13.2,10,2.3,4.7,12.9-2.8-3.7,15-17.8,17.8,3.3,19.4-12.9,7.3,1.4,8.2-5.2,3v2.8l-7.3,7-2.5,5.6-7.8,2.4-7-2.4-7.7-21.6-4.2-9.6,4.2-9.8-3.3-13.4-6.1-6.6,2.3-3.7-2.1-6.1-10.8-5.7-9.1,4.7-3.8-3.8-7.2,3.8-14.3-15.6c-2.9,8.1-4.6,16.8-4.6,26,0,41.9,34,75.9,75.9,75.9s75.9-34,75.9-75.9-34-75.9-75.9-75.9h.4ZM573.5,180.9l-6.1-5,2.1-11.8,7.1-5.9,5.9,11.4-9,11.4h0Z"/>
  <path class="st2" d="M600.3,46.5c-17.8-14.4-40.2-22.3-63.1-22.3s-17.1,1.1-25.3,3.2l-1.9-7.5c8.9-2.3,18.1-3.5,27.3-3.5,24.6,0,48.8,8.5,67.9,24l-4.8,6h-.1Z"/>
  <path class="st1" d="M512.7,212.9c-14.5-4-28.1-11.8-39.1-22.5l5.3-5.5c10.2,9.8,22.6,16.9,35.9,20.6l-2.1,7.4h0Z"/>
  <path class="st1" d="M464.1,179.8c-9.3-12.2-15.4-26.7-17.5-42l7.6-1.1c2,14,7.5,27.3,16,38.4l-6.1,4.7Z"/>
  <path class="st1" d="M573.3,48.8c-14.4-7.1-30-9.8-45-7.9l-1-7.6c16.5-2.2,33.6.8,49.4,8.6l-3.4,6.9Z"/>
  <path class="st1" d="M614.9,92.4c-6.1-14.5-17-27.7-30.5-37.1l4.4-6.3c15,10.4,26.5,24.3,33.2,40.4l-7.1,3h0Z"/>
  <path class="st0" d="M778.5,88.4h0c0-.2-.3-.4-.4-.7-.3-.5-.6-.9-.9-1.4-.3-.4-.6-.9-.9-1.3-.2-.3-.5-.6-.7-1-.4-.5-.8-1-1.2-1.5,0-.2-.3-.3-.4-.5-.4-.5-.8-.9-1.2-1.4h0c-2.6-2.8-5.5-5.3-8.9-7.4,0,0-.2-.2-.4-.2h0c-.8-.5-1.6-.9-2.4-1.4h0c-.4-.2-.7-.4-1.1-.6-1.8-.9-3.6-1.6-5.5-2.1-4.1-1.2-8.1-1.8-12.1-1.9-11.7-.3-22.7,3.9-31.1,11.9-8.4-7.9-19.4-12.2-31.1-11.9-4,0-8,.7-12.1,1.9-1.9.6-3.7,1.3-5.5,2.1-.4.2-.7.4-1.1.6h0c-.8.4-1.6.9-2.4,1.4h0c0,0-.2.2-.4.2-3.4,2.1-6.3,4.5-8.9,7.3h0c-.4.5-.8,1-1.2,1.5,0,.2-.3.3-.4.5-.4.5-.8,1-1.2,1.5-.2.3-.5.6-.7,1-.3.4-.6.9-.9,1.3-.3.5-.6.9-.9,1.4,0,.2-.3.4-.4.6h0c-3.9,6.7-6.1,14.3-6.1,22.2v72.8h27v-72.2c0-6.9,4-13.2,10.1-15.8h0c.9-.4,1.8-.7,2.7-.9,1-.2,2.1-.4,3.1-.4,7.1-.1,13.2,4.2,15.7,10.5h0c.4,1,.7,2,.9,3.1,0,.4,0,.7.2,1.1,0,.4,0,.7,0,1.1v73.6h27.4v-73.6c0-.4,0-.8,0-1.1,0-.4,0-.7.2-1.1.2-1.1.5-2.1.9-3.1h0c2.5-6.2,8.6-10.6,15.7-10.5,1,0,2,.2,3.1.4,1,.2,1.9.5,2.7.9h0c6.1,2.6,10.1,9,10.1,15.8v72.2h27v-72.8c0-7.9-2.1-15.5-6.1-22.2h0ZM406.9,160.1c-19,0-34.4-15.4-34.4-34.4s15.4-34.4,34.4-34.4,25.9,8.3,31.3,20.2c1.3-10.2,4.2-20,8.4-29-10.5-9.6-24.4-15.5-39.7-15.5-28,0-51.5,19.7-57.3,46-5.8-26.3-29.3-46-57.3-46s-51.7,19.9-57.4,46.4c-5.7-26.5-29.2-46.4-57.4-46.4s-51.7,19.9-57.4,46.3c-5.8-15-19.5-25.5-41.4-31.7l-19.5-5.9c-19.5-5.5-26.1-11.5-26.1-23.5s10.4-23.1,27.8-23.1,27.1,9.4,29,25.1l.5,4.2h26.5l-.4-5.1c-2.4-29.2-24.7-48.9-55.3-48.9S5.6,24.7,5.6,52.7s15,39.3,44.7,47.9l20.4,5.9c17.2,4.9,25.1,13.4,25.1,26.6s-13.2,26.6-32.7,26.6-31.8-10.4-35.1-29.3l-.7-3.9H0l.8,5.4c4.7,32.4,28.5,52.5,62.1,52.5s53.1-16.3,59-40.1c7.8,23.3,29.8,40.1,55.7,40.1s42.4-13,52.2-31.9h-30.6c-5.9,4.8-13.4,7.6-21.6,7.6-15.1,0-27.8-9.7-32.5-23.2h89.7c5.2,27,29.1,47.5,57.6,47.5s24.7-4.2,34.4-11.2v11.2h24.3v-40.8c7.6,23.6,29.8,40.8,55.9,40.8s30-6.2,40.5-16.3c-4.4-8.9-7.4-18.6-8.9-28.8-5.3,12.2-17.5,20.7-31.6,20.7h-.1ZM145.5,113.4c5-12.9,17.5-22.1,32.1-22.1s27.1,9.2,32.1,22.1h-64.2ZM326.7,125.7c0,19-15.4,34.4-34.4,34.4s-34.4-15.4-34.4-34.4,15.4-34.4,34.4-34.4,34.4,15.4,34.4,34.4h0Z"/>
  <path class="st2" d="M537.5,233.4c-17.4,0-34.6-4.2-49.9-12.2l3.6-6.8c15.2,8,32.4,11.9,49.7,11.3,8.6-.3,17-1.7,25.2-4.1l2.2,7.4c-8.8,2.6-17.9,4.1-27.2,4.4h-3.6Z"/>
</svg>